<?xml version="1.0" standalone="no"?>
<!DOCTYPE svg PUBLIC "-//W3C//DTD SVG 20010904//EN"
 "http://www.w3.org/TR/2001/REC-SVG-20010904/DTD/svg10.dtd">
<svg version="1.0" xmlns="http://www.w3.org/2000/svg"
 width="150.000000pt" height="150.000000pt" viewBox="0 0 150.000000 150.000000"
 preserveAspectRatio="xMidYMid meet">

<g transform="translate(0.000000,150.000000) scale(0.100000,-0.100000)"
fill="#000000" stroke="none">
<path d="M700 1454 c34 -7 158 -9 147 -2 -7 4 -46 7 -87 7 -41 -1 -68 -3 -60
-5z"/>
<path d="M608 1443 c6 -2 18 -2 25 0 6 3 1 5 -13 5 -14 0 -19 -2 -12 -5z"/>
<path d="M658 1443 c7 -3 16 -2 19 1 4 3 -2 6 -13 5 -11 0 -14 -3 -6 -6z"/>
<path d="M877 1443 c-3 -5 11 -9 31 -11 40 -3 40 2 0 12 -15 3 -29 3 -31 -1z"/>
<path d="M997 1409 c7 -7 15 -10 18 -7 3 3 -2 9 -12 12 -14 6 -15 5 -6 -5z"/>
<path d="M925 1389 c-129 -7 -248 -27 -358 -60 -38 -11 -75 -18 -83 -15 -8 3
-13 2 -10 -3 7 -11 -141 -54 -156 -45 -6 4 -8 3 -5 -3 4 -6 -10 -15 -33 -21
-30 -7 -38 -7 -33 2 4 6 -10 -2 -30 -19 -86 -68 -140 -121 -153 -150 -8 -16
-9 -21 -2 -10 22 34 114 125 127 125 7 0 10 -4 6 -9 -3 -5 0 -13 6 -17 8 -4 9
-3 5 4 -4 7 -1 12 6 12 11 0 11 2 0 9 -17 10 2 17 182 71 77 22 146 38 153 36
8 -3 12 -2 9 3 -15 24 337 82 485 80 49 -1 92 0 95 3 10 10 -88 13 -211 7z"/>
<path d="M359 1339 l-24 -20 28 17 c15 9 27 18 27 20 0 8 -8 4 -31 -17z"/>
<path d="M1123 1347 c0 -7 9 -13 19 -13 10 0 18 1 18 3 0 1 -8 7 -18 12 -13 7
-19 6 -19 -2z"/>
<path d="M1305 1340 c53 -27 75 -47 113 -99 41 -56 42 -44 1 15 -30 44 -110
103 -139 104 -8 0 3 -9 25 -20z"/>
<path d="M364 1314 c-18 -14 -18 -15 4 -4 12 6 22 13 22 15 0 8 -5 6 -26 -11z"/>
<path d="M585 1290 c27 -12 43 -12 25 0 -8 5 -22 9 -30 9 -10 0 -8 -3 5 -9z"/>
<path d="M272 1278 c-15 -15 -15 -28 -1 -28 5 0 8 4 4 9 -3 6 3 14 12 20 10 6
13 11 8 11 -6 0 -16 -5 -23 -12z"/>
<path d="M610 1255 c0 -2 6 -8 13 -14 10 -8 14 -7 14 2 0 8 -6 14 -14 14 -7 0
-13 -1 -13 -2z"/>
<path d="M534 1225 c-22 -33 -13 -97 22 -166 43 -86 37 -184 -10 -177 -12 1
-23 -2 -26 -7 -3 -6 7 -11 21 -13 37 -4 69 38 69 90 0 22 -13 70 -30 108 -38
86 -45 122 -31 148 9 17 18 20 44 16 l32 -6 -29 16 c-38 21 -43 20 -62 -9z"/>
<path d="M898 1237 c-9 -27 -3 -362 7 -364 6 -2 10 35 9 97 0 54 3 97 8 94 4
-3 8 -15 8 -27 1 -42 36 -161 49 -165 16 -5 14 11 -17 133 -14 53 -17 85 -11
97 16 29 11 103 -8 120 -29 25 -41 29 -45 15z m36 -33 c10 -26 7 -79 -6 -97
-11 -15 -13 -7 -13 48 0 63 7 81 19 49z"/>
<path d="M720 1055 l0 -185 40 0 c22 0 40 5 40 10 0 6 -13 10 -28 10 l-29 0
-2 80 c-1 74 0 80 18 80 30 0 35 19 6 26 -24 6 -25 10 -25 75 0 62 2 69 20 69
11 0 20 5 20 10 0 6 -13 10 -30 10 l-30 0 0 -185z"/>
<path d="M1300 1195 c13 -14 25 -25 27 -25 9 0 -33 49 -41 50 -5 0 1 -11 14
-25z"/>
<path d="M611 1203 c-1 -17 16 -25 25 -12 4 7 3 9 -4 5 -5 -3 -13 0 -15 6 -4
9 -6 10 -6 1z"/>
<path d="M1461 1160 c15 -45 24 -54 15 -15 -4 17 -12 34 -17 40 -5 5 -4 -6 2
-25z"/>
<path d="M1286 1172 c-3 -5 1 -9 9 -9 8 0 12 4 9 9 -3 4 -7 8 -9 8 -2 0 -6 -4
-9 -8z"/>
<path d="M160 1147 c-12 -19 -11 -21 2 -10 8 7 18 10 21 6 4 -3 7 -1 7 5 0 21
-16 21 -30 -1z"/>
<path d="M1481 1094 c0 -11 3 -14 6 -6 3 7 2 16 -1 19 -3 4 -6 -2 -5 -13z"/>
<path d="M532 1056 c7 -8 15 -12 17 -11 5 6 -10 25 -20 25 -5 0 -4 -6 3 -14z"/>
<path d="M1492 1045 c0 -16 2 -22 5 -12 2 9 2 23 0 30 -3 6 -5 -1 -5 -18z"/>
<path d="M105 1049 c-4 -6 -5 -12 -2 -15 2 -3 7 2 10 11 7 17 1 20 -8 4z"/>
<path d="M623 1031 c0 -11 5 -18 9 -15 4 3 5 11 1 19 -7 21 -12 19 -10 -4z"/>
<path d="M21 985 c-12 -31 -21 -61 -20 -68 0 -7 11 17 24 53 13 35 22 66 20
68 -1 2 -12 -22 -24 -53z"/>
<path d="M88 1005 c-3 -11 -9 -29 -13 -40 -3 -11 1 -7 10 8 9 16 15 33 12 40
-2 6 -6 3 -9 -8z"/>
<path d="M1431 954 c0 -11 3 -14 6 -6 3 7 2 16 -1 19 -3 4 -6 -2 -5 -13z"/>
<path d="M61 914 c0 -11 3 -14 6 -6 3 7 2 16 -1 19 -3 4 -6 -2 -5 -13z"/>
<path d="M544 915 c-18 -15 -18 -15 0 -8 15 5 17 3 11 -8 -5 -8 -4 -11 0 -6 8
7 17 37 11 37 -1 0 -11 -7 -22 -15z"/>
<path d="M1441 904 c0 -11 3 -14 6 -6 3 7 2 16 -1 19 -3 4 -6 -2 -5 -13z"/>
<path d="M52 860 c0 -19 2 -27 5 -17 2 9 2 25 0 35 -3 9 -5 1 -5 -18z"/>
<path d="M596 872 c-3 -4 4 -9 15 -9 23 -2 25 3 4 10 -8 4 -16 3 -19 -1z"/>
<path d="M1452 855 c0 -16 2 -22 5 -12 2 9 2 23 0 30 -3 6 -5 -1 -5 -18z"/>
<path d="M1492 840 c0 -19 2 -27 5 -17 2 9 2 25 0 35 -3 9 -5 1 -5 -18z"/>
<path d="M43 755 c0 -33 2 -45 4 -27 2 18 2 45 0 60 -2 15 -4 0 -4 -33z"/>
<path d="M1482 770 c0 -14 2 -19 5 -12 2 6 2 18 0 25 -3 6 -5 1 -5 -13z"/>
<path d="M1465 720 c-8 -26 -68 -151 -61 -129 2 9 -1 16 -8 16 -6 0 -12 -8
-12 -18 0 -10 4 -15 9 -12 5 3 7 0 5 -8 -3 -8 -11 -13 -17 -11 -7 1 -10 -2 -6
-8 4 -6 -8 -33 -25 -60 -32 -49 -48 -65 -36 -34 3 9 2 12 -5 9 -5 -4 -7 -15
-4 -26 6 -18 -9 -28 -18 -11 -2 4 -2 1 0 -7 4 -17 -36 -63 -49 -55 -4 3 -20
-4 -34 -15 -15 -12 -23 -21 -19 -21 5 0 17 7 27 17 10 9 21 14 24 11 9 -9
-120 -109 -133 -103 -7 2 -12 -1 -10 -8 1 -7 -6 -11 -15 -11 -10 1 -15 -3 -11
-9 4 -6 0 -8 -11 -4 -9 4 -15 3 -12 -2 7 -11 -49 -34 -132 -55 -100 -26 -422
-14 -422 16 0 5 -4 6 -10 3 -16 -10 -147 34 -154 51 -3 8 -10 13 -15 9 -11 -6
-82 25 -76 35 2 3 0 12 -6 20 -6 10 -9 11 -9 3 0 -7 -4 -13 -9 -13 -18 0 -104
79 -137 125 -43 61 -52 69 -28 26 28 -50 110 -131 181 -178 34 -22 59 -44 55
-47 -3 -4 2 -4 12 0 13 5 17 4 13 -3 -4 -6 1 -17 11 -24 15 -13 16 -12 3 3
-16 21 -3 23 33 7 14 -7 23 -16 19 -22 -3 -6 -1 -7 5 -3 5 3 48 -3 94 -14 121
-29 322 -37 421 -16 44 9 84 13 90 9 6 -3 7 -1 3 5 -4 7 -2 12 4 12 7 0 35 11
62 25 27 14 55 22 60 18 6 -3 8 -1 4 5 -10 16 36 45 47 29 6 -9 7 -8 5 3 -3 8
8 25 24 38 32 27 49 23 27 -5 -13 -16 -12 -17 4 -4 11 8 15 21 12 32 -7 22 5
25 25 7 12 -11 12 -10 3 2 -9 11 -8 19 1 32 7 10 16 16 19 13 4 -3 5 -2 3 1
-2 3 19 35 46 72 59 78 65 85 49 55 -6 -12 -7 -24 -3 -27 8 -5 12 8 13 47 0
10 5 15 11 11 7 -4 8 -2 4 4 -10 17 26 75 36 59 5 -7 6 1 2 17 -4 17 -3 27 3
23 5 -3 14 20 21 50 12 56 10 84 -3 43z"/>
<path d="M295 610 c-4 -6 -1 -9 7 -8 7 2 13 -4 13 -12 0 -8 -5 -15 -12 -15 -6
0 -15 -4 -20 -9 -5 -5 -3 -6 5 -2 15 9 15 1 2 -25 -6 -10 -17 -19 -25 -19 -17
0 -20 -17 -5 -22 6 -2 4 -14 -4 -30 -8 -15 -11 -30 -6 -33 5 -3 11 4 15 15 4
11 10 18 15 15 4 -3 6 4 3 15 -3 12 0 20 7 20 6 0 11 -12 10 -27 -4 -50 0 -63
15 -63 8 0 15 5 15 10 0 6 -4 10 -9 10 -5 0 -5 15 -2 33 6 24 12 32 29 31 17
0 19 2 11 13 -6 7 -16 10 -21 7 -6 -4 -8 1 -5 12 3 11 8 29 11 40 5 16 0 26
-18 38 -16 10 -27 12 -31 6z m24 -70 c-6 -16 -15 -30 -20 -30 -5 0 -3 14 6 30
9 17 17 30 20 30 2 0 -1 -13 -6 -30z"/>
<path d="M990 600 c-6 -11 -16 -17 -22 -14 -6 4 -8 3 -4 -4 9 -14 -14 -63 -27
-55 -6 3 -8 2 -4 -3 3 -5 -1 -20 -10 -34 l-14 -25 5 25 c3 14 6 30 6 37 0 6 6
18 14 26 9 9 11 19 5 28 -12 19 -24 0 -40 -64 -9 -37 -9 -51 0 -60 13 -12 19
-7 46 38 8 13 10 8 9 -22 -2 -31 2 -39 16 -40 22 -2 35 26 20 41 -8 8 -9 5 -4
-9 5 -16 4 -17 -5 -9 -10 9 -10 24 -1 70 7 33 16 67 21 77 6 9 7 17 5 17 -3 0
-10 -9 -16 -20z"/>
<path d="M1012 585 c-17 -37 -14 -45 4 -12 9 16 14 31 11 33 -2 2 -9 -7 -15
-21z"/>
<path d="M480 567 c0 -8 -10 -19 -22 -25 -16 -7 -18 -11 -7 -11 14 -1 15 -7 6
-39 -6 -22 -7 -47 -3 -57 6 -16 11 -13 33 21 15 21 31 42 37 46 7 5 4 8 -6 8
-10 0 -24 -13 -33 -30 -22 -42 -25 -37 -10 13 10 34 17 43 39 45 14 2 26 8 26
14 0 6 -9 8 -20 5 -13 -3 -20 0 -20 9 0 8 -4 14 -10 14 -5 0 -10 -6 -10 -13z"/>
<path d="M1426 554 c-4 -9 -4 -19 -1 -22 2 -3 7 3 11 12 4 9 4 19 1 22 -2 3
-7 -3 -11 -12z"/>
<path d="M1024 538 c-12 -19 -14 -60 -4 -77 8 -14 10 -13 10 4 l1 20 9 -20
c12 -29 12 -37 -2 -29 -7 4 -9 3 -5 -1 15 -17 35 -13 30 5 -3 10 0 21 6 24 7
5 11 -2 12 -16 1 -22 3 -19 14 19 3 10 10 10 29 1 19 -8 29 -8 40 1 11 9 18 6
33 -15 24 -32 46 -24 42 14 -2 15 0 33 5 40 10 16 -7 37 -22 28 -5 -3 -12 -17
-14 -31 -3 -13 -1 -22 3 -19 10 6 12 -10 2 -19 -12 -12 -31 14 -26 36 5 21 4
21 -16 -3 l-21 -25 10 29 c9 24 8 27 -6 22 -8 -3 -21 -6 -28 -6 -7 0 -18 -12
-25 -26 -6 -15 -14 -24 -17 -21 -3 3 -1 15 6 26 6 12 7 21 2 21 -5 0 -14 -10
-19 -22 -9 -20 -10 -18 -8 15 3 31 0 37 -15 37 -10 0 -22 -5 -26 -12z m26 -19
c0 -15 -18 -19 -23 -6 -3 8 1 14 9 14 8 0 14 -4 14 -8z"/>
<path d="M1 535 c0 -5 6 -21 14 -35 8 -14 14 -20 14 -15 0 6 -6 21 -14 35 -8
14 -14 21 -14 15z"/>
<path d="M381 499 c-2 -44 10 -51 27 -14 6 14 17 25 24 25 14 1 -19 23 -38 26
-5 1 -11 -16 -13 -37z"/>
<path d="M772 518 c-21 -21 -22 -21 -16 -3 5 16 4 18 -6 8 -7 -6 -19 -9 -26
-6 -9 3 -14 -2 -14 -16 0 -12 5 -21 11 -21 7 0 4 -11 -6 -27 -16 -24 -16 -27
-1 -38 8 -7 13 -15 9 -18 -3 -4 -2 -7 4 -7 6 0 11 11 11 24 0 32 26 82 41 78
7 -1 10 2 6 8 -4 6 -1 17 5 25 19 23 7 18 -18 -7z"/>
<path d="M1255 514 c-8 -13 -11 -24 -6 -24 5 0 13 9 16 20 7 22 21 26 27 8 3
-8 6 -7 10 3 10 25 -29 20 -47 -7z"/>
<path d="M540 511 c-22 -42 -7 -85 17 -51 8 11 19 17 25 14 7 -4 8 -2 4 4 -4
6 -3 20 3 30 8 15 5 18 -15 20 -14 1 -27 -6 -34 -17z"/>
<path d="M80 515 c0 -5 5 -17 10 -25 5 -8 10 -10 10 -5 0 6 -5 17 -10 25 -5 8
-10 11 -10 5z"/>
<path d="M1326 493 c-6 -14 -5 -15 5 -6 7 7 10 15 7 18 -3 3 -9 -2 -12 -12z"/>
<path d="M421 481 c-8 -14 -7 -22 2 -29 10 -9 13 -4 12 19 0 34 -1 35 -14 10z"/>
<path d="M1403 485 c-3 -9 -3 -18 -1 -21 3 -3 8 4 11 16 6 23 -1 27 -10 5z"/>
<path d="M1255 469 c-4 -6 -5 -12 -2 -15 2 -3 7 2 10 11 7 17 1 20 -8 4z"/>
<path d="M100 461 c0 -6 4 -13 10 -16 6 -3 7 1 4 9 -7 18 -14 21 -14 7z"/>
<path d="M658 448 c8 -10 10 -23 6 -30 -6 -9 -3 -9 9 1 10 8 16 14 15 15 -2 1
-12 8 -23 16 -18 14 -19 14 -7 -2z"/>
<path d="M505 440 c-3 -5 -1 -10 4 -10 6 0 11 5 11 10 0 6 -2 10 -4 10 -3 0
-8 -4 -11 -10z"/>
<path d="M750 443 c0 -5 10 -18 23 -29 l22 -19 -20 25 c-11 14 -21 27 -22 29
-2 2 -3 0 -3 -6z"/>
<path d="M270 427 c0 -7 7 -22 16 -33 14 -18 15 -18 4 4 -6 12 -8 27 -5 32 3
6 1 10 -4 10 -6 0 -11 -6 -11 -13z"/>
<path d="M130 421 c0 -6 4 -13 10 -16 6 -3 7 1 4 9 -7 18 -14 21 -14 7z"/>
<path d="M1334 418 c-4 -7 -14 -24 -22 -38 -14 -24 -13 -24 3 -5 9 11 20 19
24 18 3 -1 7 7 7 18 0 22 -2 23 -12 7z"/>
<path d="M950 405 c-7 -9 -11 -17 -9 -20 3 -2 10 5 17 15 14 24 10 26 -8 5z"/>
<path d="M405 400 c-3 -6 1 -7 9 -4 18 7 21 14 7 14 -6 0 -13 -4 -16 -10z"/>
<path d="M445 400 c-3 -6 1 -7 9 -4 18 7 21 14 7 14 -6 0 -13 -4 -16 -10z"/>
<path d="M750 401 c0 -6 4 -13 10 -16 6 -3 7 1 4 9 -7 18 -14 21 -14 7z"/>
<path d="M1365 399 c-4 -6 -5 -12 -2 -15 2 -3 7 2 10 11 7 17 1 20 -8 4z"/>
<path d="M195 351 c-3 -5 -2 -12 3 -15 5 -3 9 1 9 9 0 17 -3 19 -12 6z"/>
<path d="M187 319 c7 -7 15 -10 18 -7 3 3 -2 9 -12 12 -14 6 -15 5 -6 -5z"/>
<path d="M1310 320 c0 -5 -5 -9 -12 -7 -7 1 -12 -5 -13 -13 0 -8 -7 -14 -14
-12 -7 1 -9 -2 -6 -9 5 -7 17 -1 36 17 32 30 34 34 19 34 -5 0 -10 -4 -10 -10z"/>
<path d="M1138 298 c-10 -10 -14 -18 -9 -18 10 0 36 29 30 34 -2 1 -12 -6 -21
-16z"/>
<path d="M1057 283 c-3 -5 6 -9 20 -10 19 -1 22 1 12 8 -17 11 -26 11 -32 2z"/>
<path d="M1215 249 c-4 -6 -4 -13 -1 -16 10 -10 -15 -33 -28 -26 -6 3 -8 3 -4
-2 4 -4 -3 -16 -15 -27 -19 -17 -17 -16 10 2 36 24 46 37 48 62 2 21 -1 22
-10 7z"/>
<path d="M1245 250 c-3 -6 1 -7 9 -4 18 7 21 14 7 14 -6 0 -13 -4 -16 -10z"/>
<path d="M1123 183 c0 -9 4 -10 14 -2 7 6 13 12 13 14 0 1 -6 2 -13 2 -8 0
-14 -6 -14 -14z"/>
<path d="M346 181 c-6 -9 7 -22 34 -35 8 -4 6 0 -5 9 -11 9 -19 21 -17 26 3
12 -5 12 -12 0z"/>
<path d="M1085 130 c-3 -6 1 -7 9 -4 18 7 21 14 7 14 -6 0 -13 -4 -16 -10z"/>
<path d="M436 115 c10 -8 23 -15 28 -15 6 0 1 7 -10 15 -10 8 -23 15 -28 15
-6 0 -1 -7 10 -15z"/>
<path d="M1040 110 c0 -5 7 -7 15 -4 8 4 15 8 15 10 0 2 -7 4 -15 4 -8 0 -15
-4 -15 -10z"/>
<path d="M509 84 c19 -8 38 -11 42 -7 5 5 1 9 -9 9 -9 0 -28 3 -42 7 -15 4
-11 1 9 -9z"/>
<path d="M920 70 c-13 -8 -12 -10 3 -10 9 0 17 5 17 10 0 12 -1 12 -20 0z"/>
<path d="M568 63 c6 -2 18 -2 25 0 6 3 1 5 -13 5 -14 0 -19 -2 -12 -5z"/>
<path d="M618 53 c7 -3 16 -2 19 1 4 3 -2 6 -13 5 -11 0 -14 -3 -6 -6z"/>
<path d="M868 53 c7 -3 16 -2 19 1 4 3 -2 6 -13 5 -11 0 -14 -3 -6 -6z"/>
<path d="M713 43 c26 -2 67 -2 90 0 23 2 2 3 -48 3 -49 0 -68 -1 -42 -3z"/>
</g>
</svg>
